<svg xmlns="http://www.w3.org/2000/svg" viewBox="0 0 1600 980" role="img" aria-labelledby="title desc">
  <title id="title">Учебный автомобиль на вечерней городской дороге</title>
  <desc id="desc">Иллюстрация города, широкой дороги и учебного автомобиля с инструктором.</desc>
  <defs>
    <linearGradient id="sky" x1="0" x2="0" y1="0" y2="1">
      <stop offset="0" stop-color="#c7f2e5"/>
      <stop offset="0.52" stop-color="#f7fbf8"/>
      <stop offset="1" stop-color="#ffd83d"/>
    </linearGradient>
    <linearGradient id="road" x1="0" x2="1" y1="0" y2="1">
      <stop offset="0" stop-color="#262b27"/>
      <stop offset="1" stop-color="#11120f"/>
    </linearGradient>
    <linearGradient id="car" x1="0" x2="1" y1="0" y2="1">
      <stop offset="0" stop-color="#ffffff"/>
      <stop offset="1" stop-color="#dcebe5"/>
    </linearGradient>
    <filter id="softShadow" x="-20%" y="-20%" width="140%" height="160%">
      <feDropShadow dx="0" dy="26" stdDeviation="24" flood-color="#000000" flood-opacity="0.26"/>
    </filter>
  </defs>
  <rect width="1600" height="980" fill="url(#sky)"/>
  <circle cx="1310" cy="190" r="74" fill="#ffd83d"/>
  <path d="M0 514C232 428 348 468 536 400C735 329 874 258 1050 306C1251 361 1361 482 1600 430V980H0Z" fill="#bfe8d8"/>
  <path d="M0 568C207 505 387 540 547 492C720 440 835 377 1016 412C1226 453 1355 574 1600 522V980H0Z" fill="#72c4af"/>
  <g opacity="0.76">
    <rect x="190" y="275" width="64" height="250" rx="4" fill="#eff8f3"/>
    <rect x="276" y="223" width="98" height="302" rx="4" fill="#dff2ed"/>
    <rect x="404" y="308" width="78" height="217" rx="4" fill="#eff8f3"/>
    <rect x="1110" y="242" width="92" height="283" rx="4" fill="#eff8f3"/>
    <rect x="1230" y="308" width="64" height="217" rx="4" fill="#dff2ed"/>
    <rect x="1324" y="254" width="112" height="271" rx="4" fill="#eff8f3"/>
  </g>
  <g fill="#0b7f65" opacity="0.75">
    <rect x="208" y="306" width="12" height="34" rx="2"/>
    <rect x="238" y="306" width="12" height="34" rx="2"/>
    <rect x="304" y="260" width="12" height="34" rx="2"/>
    <rect x="336" y="260" width="12" height="34" rx="2"/>
    <rect x="1139" y="278" width="12" height="34" rx="2"/>
    <rect x="1169" y="278" width="12" height="34" rx="2"/>
    <rect x="1350" y="294" width="12" height="34" rx="2"/>
    <rect x="1390" y="294" width="12" height="34" rx="2"/>
  </g>
  <path d="M0 656C310 622 520 608 800 608C1080 608 1290 622 1600 656V980H0Z" fill="url(#road)"/>
  <path d="M658 980L776 622H824L943 980Z" fill="#323833"/>
  <path d="M789 650L777 704H824L812 650Z" fill="#ffd83d"/>
  <path d="M761 770L742 856H860L840 770Z" fill="#ffd83d"/>
  <path d="M721 934L711 980H890L880 934Z" fill="#ffd83d"/>
  <g opacity="0.45">
    <path d="M0 731H500" stroke="#ffffff" stroke-width="8" stroke-linecap="round" stroke-dasharray="82 74"/>
    <path d="M1100 731H1600" stroke="#ffffff" stroke-width="8" stroke-linecap="round" stroke-dasharray="82 74"/>
  </g>
  <g filter="url(#softShadow)">
    <path d="M570 615C620 555 684 526 812 526H965C1050 526 1115 560 1173 625L1250 643C1295 654 1327 694 1327 741V775H471V742C471 694 506 652 553 642Z" fill="url(#car)"/>
    <path d="M663 610C699 572 748 554 815 554H952C1002 554 1047 572 1082 610Z" fill="#1c433a"/>
    <path d="M711 604C744 573 780 563 824 563H862V604Z" fill="#bfe8d8"/>
    <path d="M885 604V563H944C985 563 1017 576 1046 604Z" fill="#bfe8d8"/>
    <rect x="527" y="671" width="134" height="36" rx="18" fill="#0b7f65"/>
    <rect x="1140" y="671" width="134" height="36" rx="18" fill="#ffd83d"/>
    <rect x="754" y="645" width="264" height="52" rx="26" fill="#f05d5e"/>
    <circle cx="642" cy="781" r="72" fill="#11120f"/>
    <circle cx="642" cy="781" r="33" fill="#aeb9b3"/>
    <circle cx="1148" cy="781" r="72" fill="#11120f"/>
    <circle cx="1148" cy="781" r="33" fill="#aeb9b3"/>
    <path d="M815 520C819 493 840 475 866 475H913C939 475 960 493 964 520Z" fill="#ffd83d"/>
    <rect x="848" y="446" width="84" height="42" rx="21" fill="#ffd83d"/>
    <text x="890" y="477" text-anchor="middle" font-family="Arial, sans-serif" font-size="26" font-weight="800" fill="#11120f">У</text>
  </g>
</svg>
