<svg xmlns="http://www.w3.org/2000/svg" viewBox="0 0 980 720" role="img" aria-labelledby="title desc">
  <title id="title">Схема учебного маршрута</title>
  <desc id="desc">Городская карта с учебным автомобилем и точками маршрута.</desc>
  <defs>
    <linearGradient id="bg" x1="0" x2="1" y1="0" y2="1">
      <stop offset="0" stop-color="#dff2ed"/>
      <stop offset="1" stop-color="#fff7c8"/>
    </linearGradient>
    <filter id="shadow" x="-20%" y="-20%" width="140%" height="150%">
      <feDropShadow dx="0" dy="18" stdDeviation="18" flood-color="#0f3b31" flood-opacity="0.2"/>
    </filter>
  </defs>
  <rect width="980" height="720" fill="url(#bg)"/>
  <g fill="none" stroke-linecap="round">
    <path d="M-30 192H330C414 192 462 258 462 333V750" stroke="#ffffff" stroke-width="74"/>
    <path d="M83 754V496C83 408 154 337 242 337H1020" stroke="#ffffff" stroke-width="74"/>
    <path d="M-20 554H256C326 554 383 497 383 427V-30" stroke="#ffffff" stroke-width="48"/>
    <path d="M600 -40V223C600 292 656 348 725 348H1020" stroke="#ffffff" stroke-width="48"/>
    <path d="M-30 192H330C414 192 462 258 462 333V750" stroke="#c6d8cf" stroke-width="6" stroke-dasharray="24 26"/>
    <path d="M83 754V496C83 408 154 337 242 337H1020" stroke="#c6d8cf" stroke-width="6" stroke-dasharray="24 26"/>
  </g>
  <g opacity="0.85">
    <rect x="128" y="76" width="138" height="78" rx="8" fill="#0b7f65"/>
    <rect x="690" y="80" width="168" height="98" rx="8" fill="#f05d5e"/>
    <rect x="664" y="482" width="166" height="112" rx="8" fill="#0b7f65"/>
    <rect x="174" y="472" width="138" height="98" rx="8" fill="#ffd83d"/>
    <rect x="512" y="224" width="78" height="76" rx="8" fill="#ffd83d"/>
  </g>
  <g fill="#f6fbf8" opacity="0.72">
    <rect x="154" y="98" width="34" height="16" rx="3"/>
    <rect x="202" y="98" width="34" height="16" rx="3"/>
    <rect x="154" y="124" width="82" height="14" rx="3"/>
    <rect x="718" y="106" width="96" height="16" rx="3"/>
    <rect x="718" y="136" width="118" height="16" rx="3"/>
    <rect x="694" y="516" width="44" height="18" rx="3"/>
    <rect x="754" y="516" width="44" height="18" rx="3"/>
    <rect x="694" y="550" width="94" height="18" rx="3"/>
  </g>
  <path d="M164 596C242 518 296 476 377 433C477 380 564 372 660 340C748 310 813 267 887 205" fill="none" stroke="#0b7f65" stroke-width="12" stroke-linecap="round" stroke-dasharray="2 28"/>
  <g filter="url(#shadow)">
    <circle cx="164" cy="596" r="32" fill="#0b7f65"/>
    <circle cx="887" cy="205" r="32" fill="#f05d5e"/>
    <circle cx="492" cy="392" r="25" fill="#ffd83d"/>
  </g>
  <g transform="translate(535 338) rotate(-18)" filter="url(#shadow)">
    <path d="M34 34C50 14 73 6 115 6H172C200 6 222 17 240 39L267 46C284 50 296 65 296 83V98H0V82C0 64 13 49 30 45Z" fill="#ffffff"/>
    <path d="M71 34C84 22 101 16 124 16H169C186 16 201 22 213 34Z" fill="#1c433a"/>
    <rect x="22" y="55" width="52" height="18" rx="9" fill="#0b7f65"/>
    <rect x="222" y="55" width="52" height="18" rx="9" fill="#ffd83d"/>
    <circle cx="62" cy="101" r="24" fill="#11120f"/>
    <circle cx="62" cy="101" r="11" fill="#aeb9b3"/>
    <circle cx="231" cy="101" r="24" fill="#11120f"/>
    <circle cx="231" cy="101" r="11" fill="#aeb9b3"/>
  </g>
  <g fill="#10110f" opacity="0.82">
    <path d="M164 580L174 602H154Z"/>
    <path d="M887 189L897 211H877Z"/>
  </g>
</svg>
